<svg width="50" height="50" viewBox="0 0 50 50" fill="none" xmlns="http://www.w3.org/2000/svg">
<rect width="50" height="50" rx="25" fill="white"/>
<path d="M33.3408 13.1538H20.8941C19.5086 13.1538 18.3875 14.2188 18.3875 15.5349V22.2126L12.5239 27.7115C12.3483 27.8766 12.2281 28.0875 12.1789 28.3175C12.1296 28.5476 12.1533 28.7863 12.2471 29.0035C12.3409 29.2206 12.5005 29.4064 12.7057 29.5373C12.9108 29.6681 13.1523 29.7381 13.3994 29.7384V35.6615C13.3994 35.9757 13.5307 36.277 13.7646 36.4992C13.9985 36.7213 14.3157 36.8461 14.6464 36.8461H34.5991C34.9298 36.8461 35.247 36.7213 35.4809 36.4992C35.7147 36.277 35.8461 35.9757 35.8461 35.6615V15.5337C35.8461 14.2188 34.7263 13.1538 33.3408 13.1538ZM23.2784 28.6853V34.4769H15.8934V27.8809L19.6184 24.3875L23.2784 27.9449V28.6853ZM25.8698 21.4461H23.3757V19.0769H25.8698V21.4461ZM30.8579 30.923H28.3639V28.5538H30.8579V30.923ZM30.8579 26.1846H28.3639V23.8153H30.8579V26.1846ZM30.8579 21.4461H28.3639V19.0769H30.8579V21.4461Z" fill="url(#paint0_linear_1301_5)"/>
<path d="M18.1665 29.5C18.1665 28.9477 18.6142 28.5 19.1665 28.5H19.4998C20.0521 28.5 20.4998 28.9477 20.4998 29.5V29.8333C20.4998 30.3856 20.0521 30.8333 19.4998 30.8333H19.1665C18.6142 30.8333 18.1665 30.3856 18.1665 29.8333V29.5Z" fill="url(#paint1_linear_1301_5)"/>
<defs>
<linearGradient id="paint0_linear_1301_5" x1="24" y1="13.1538" x2="24" y2="36.8461" gradientUnits="userSpaceOnUse">
<stop stop-color="#B54568"/>
<stop offset="1" stop-color="#A21B45"/>
</linearGradient>
<linearGradient id="paint1_linear_1301_5" x1="19.3332" y1="28.5" x2="19.3332" y2="30.8333" gradientUnits="userSpaceOnUse">
<stop stop-color="#B54568"/>
<stop offset="1" stop-color="#A21B45"/>
</linearGradient>
</defs>
</svg>
