<svg width="50" height="50" viewBox="0 0 50 50" fill="none" xmlns="http://www.w3.org/2000/svg">
<rect width="50" height="50" rx="25" fill="white"/>
<path d="M35.0632 16.8169L27.7855 22.7453V17.7416C27.786 17.578 27.749 17.4177 27.6789 17.2792C27.6089 17.1407 27.5086 17.0297 27.3897 16.9591C27.2708 16.8885 27.1382 16.8612 27.0074 16.8804C26.8765 16.8996 26.7527 16.9645 26.6503 17.0675L22.2628 21.6218H19.4284V13.0317L15.2498 11.865V21.6218H13.8569V36.3133C13.8569 36.5425 13.9303 36.7623 14.0609 36.9244C14.1915 37.0864 14.3687 37.1775 14.5534 37.1775H35.4462C35.6309 37.1775 35.8081 37.0864 35.9387 36.9244C36.0693 36.7623 36.1426 36.5425 36.1426 36.3133V17.5342C36.142 17.3785 36.1075 17.226 36.0428 17.0927C35.9781 16.9594 35.8855 16.8502 35.775 16.7768C35.6644 16.7033 35.5399 16.6682 35.4146 16.6753C35.2894 16.6824 35.1679 16.7313 35.0632 16.8169V16.8169ZM22.2141 34.5849H16.6426V32.8565H22.2141V34.5849ZM22.2141 31.1281H16.6426V29.3997H22.2141V31.1281ZM22.2141 27.6713H16.6426V25.9429H22.2141V27.6713ZM27.7855 34.5849H26.3926V31.9923H27.7855V34.5849ZM27.7855 29.3997H26.3926V26.8071H27.7855V29.3997ZM30.5712 34.5849H29.1784V31.9923H30.5712V34.5849ZM30.5712 29.3997H29.1784V26.8071H30.5712V29.3997ZM33.3569 34.5849H31.9641V31.9923H33.3569V34.5849ZM33.3569 29.3997H31.9641V26.8071H33.3569V29.3997Z" fill="url(#paint0_linear_1301_2)"/>
<defs>
<linearGradient id="paint0_linear_1301_2" x1="24.9998" y1="11.865" x2="24.9998" y2="37.1775" gradientUnits="userSpaceOnUse">
<stop stop-color="#B54568"/>
<stop offset="1" stop-color="#A21B45"/>
</linearGradient>
</defs>
</svg>
