<svg width="50" height="50" viewBox="0 0 50 50" fill="none" xmlns="http://www.w3.org/2000/svg">
<rect width="50" height="50" rx="25" fill="white"/>
<path d="M11 23.625V35.3125C11 35.6924 11.3132 36 11.7 36H15.2V22.25H12.4C11.6269 22.25 11 22.8657 11 23.625ZM26.75 21.5625H25.7V19.8438C25.7 19.6538 25.5434 19.5 25.35 19.5H24.65C24.4566 19.5 24.3 19.6538 24.3 19.8438V22.5938C24.3 22.7837 24.4566 22.9375 24.65 22.9375H26.75C26.9434 22.9375 27.1 22.7837 27.1 22.5938V21.9063C27.1 21.7163 26.9434 21.5625 26.75 21.5625ZM32.7766 18.8142L25.7766 14.2307C25.5465 14.0803 25.2764 14 25 14C24.7236 14 24.4535 14.0803 24.2234 14.2307L17.2234 18.8142C17.0317 18.9398 16.8745 19.1099 16.7657 19.3094C16.657 19.5089 16.6 19.7317 16.6 19.9581V36H22.2V29.8125C22.2 29.4327 22.5132 29.125 22.9 29.125H27.1C27.4868 29.125 27.8 29.4327 27.8 29.8125V36H33.4V19.9585C33.4 19.4987 33.1659 19.069 32.7766 18.8142ZM25 25C23.0671 25 21.5 23.4609 21.5 21.5625C21.5 19.6641 23.0671 18.125 25 18.125C26.9329 18.125 28.5 19.6641 28.5 21.5625C28.5 23.4609 26.9329 25 25 25ZM37.6 22.25H34.8V36H38.3C38.6867 36 39 35.6924 39 35.3125V23.625C39 22.8657 38.3731 22.25 37.6 22.25Z" fill="url(#paint0_linear_1133_583)"/>
<defs>
<linearGradient id="paint0_linear_1133_583" x1="25" y1="14" x2="25" y2="36" gradientUnits="userSpaceOnUse">
<stop stop-color="#B54568"/>
<stop offset="1" stop-color="#A21B45"/>
</linearGradient>
</defs>
</svg>
