<svg width="50" height="50" viewBox="0 0 50 50" fill="none" xmlns="http://www.w3.org/2000/svg">
<rect width="50" height="50" rx="25" fill="white"/>
<g clip-path="url(#clip0_1301_3)">
<path d="M31.875 9.99997C31.651 10.024 31.4417 10.1231 31.281 10.281L25 16.563L21.719 13.28C21.6244 13.1855 21.5122 13.1105 21.3887 13.0594C21.2652 13.0083 21.1328 12.982 20.9991 12.9821C20.8655 12.9821 20.7331 13.0085 20.6096 13.0597C20.4862 13.1109 20.374 13.1859 20.2795 13.2805C20.0887 13.4714 19.9815 13.7304 19.9816 14.0003C19.9817 14.134 20.008 14.2663 20.0592 14.3898C20.1104 14.5133 20.1854 14.6255 20.28 14.72L23.562 18H15C14.2044 18 13.4413 18.316 12.8787 18.8786C12.3161 19.4413 12 20.2043 12 21V33C12 33.7956 12.3161 34.5587 12.8787 35.1213C13.4413 35.6839 14.2044 36 15 36H35C35.7956 36 36.5587 35.6839 37.1213 35.1213C37.6839 34.5587 38 33.7956 38 33V21C38 20.2043 37.6839 19.4413 37.1213 18.8786C36.5587 18.316 35.7956 18 35 18H26.437L32.719 11.719C32.8764 11.5727 32.9824 11.3796 33.0215 11.1683C33.0605 10.957 33.0305 10.7387 32.9358 10.5458C32.8411 10.353 32.6868 10.1957 32.4957 10.0974C32.3046 9.99908 32.087 9.96492 31.875 9.99997ZM22.5 20C29.945 20 31 20.021 31 27C31 33.98 29.872 34 22.5 34C15.094 34 14 33.926 14 27C14 20.076 15.094 20 22.5 20ZM34.5 22.938C35.366 22.938 36.063 23.634 36.063 24.5C36.0634 24.7053 36.0232 24.9088 35.9448 25.0986C35.8664 25.2884 35.7513 25.4608 35.6061 25.6061C35.4609 25.7513 35.2884 25.8664 35.0986 25.9448C34.9088 26.0232 34.7054 26.0634 34.5 26.063C34.2946 26.0635 34.0911 26.0234 33.9012 25.9451C33.7114 25.8667 33.5389 25.7516 33.3936 25.6064C33.2484 25.4611 33.1333 25.2886 33.0549 25.0987C32.9765 24.9089 32.9365 24.7054 32.937 24.5C32.9366 24.2946 32.9768 24.0912 33.0552 23.9014C33.1336 23.7116 33.2487 23.5391 33.3939 23.3939C33.5391 23.2487 33.7116 23.1335 33.9014 23.0551C34.0912 22.9767 34.2946 22.9366 34.5 22.937V22.938ZM34.5 26.938C35.366 26.938 36.063 27.634 36.063 28.5C36.0634 28.7053 36.0232 28.9088 35.9448 29.0986C35.8664 29.2884 35.7513 29.4608 35.6061 29.6061C35.4609 29.7513 35.2884 29.8664 35.0986 29.9448C34.9088 30.0232 34.7054 30.0634 34.5 30.063C34.2946 30.0635 34.0911 30.0234 33.9012 29.9451C33.7114 29.8667 33.5389 29.7516 33.3936 29.6064C33.2484 29.4611 33.1333 29.2886 33.0549 29.0987C32.9765 28.9089 32.9365 28.7054 32.937 28.5C32.9366 28.2946 32.9768 28.0912 33.0552 27.9014C33.1336 27.7116 33.2487 27.5391 33.3939 27.3939C33.5391 27.2487 33.7116 27.1335 33.9014 27.0551C34.0912 26.9767 34.2946 26.9366 34.5 26.937V26.938Z" fill="url(#paint0_linear_1301_3)"/>
</g>
<defs>
<linearGradient id="paint0_linear_1301_3" x1="25" y1="9.98657" x2="25" y2="36" gradientUnits="userSpaceOnUse">
<stop stop-color="#B54568"/>
<stop offset="1" stop-color="#A21B45"/>
</linearGradient>
<clipPath id="clip0_1301_3">
<rect width="26" height="26" fill="white" transform="translate(12 10)"/>
</clipPath>
</defs>
</svg>
