<svg width="50" height="50" viewBox="0 0 50 50" fill="none" xmlns="http://www.w3.org/2000/svg">
<rect width="50" height="50" rx="25" fill="white"/>
<path d="M24.5 11C22.5109 11 20.6032 11.8151 19.1967 13.2661C17.7902 14.7171 17 16.685 17 18.7369C17 23.0033 21.2268 24.1937 21.5246 29.2371H27.4743C27.7721 24.1937 32 23.0033 32 18.7369C32 16.685 31.2098 14.7171 29.8033 13.2661C28.3968 11.8151 26.4891 11 24.5 11ZM24.5 39C26.5293 39 27.1604 37.8649 27.3575 37.1586H21.6425C21.8396 37.866 22.4707 39 24.5 39ZM21.5536 36.0511H27.4464V30.3435H21.5536V36.0511Z" fill="url(#paint0_linear_1128_2377)"/>
<defs>
<linearGradient id="paint0_linear_1128_2377" x1="24.5" y1="11" x2="24.5" y2="39" gradientUnits="userSpaceOnUse">
<stop stop-color="#B54568"/>
<stop offset="1" stop-color="#A21B45"/>
</linearGradient>
</defs>
</svg>
