<svg width="240" height="240" viewBox="0 0 240 240" fill="none" xmlns="http://www.w3.org/2000/svg">
<path d="M120 5L146.788 20.0267L177.5 20.4071L193.186 46.8145L219.593 62.5L219.973 93.2122L235 120L219.973 146.788L219.593 177.5L193.186 193.186L177.5 219.593L146.788 219.973L120 235L93.2122 219.973L62.5 219.593L46.8145 193.186L20.4071 177.5L20.0267 146.788L5 120L20.0267 93.2122L20.4071 62.5L46.8145 46.8145L62.5 20.4071L93.2122 20.0267L120 5Z" fill="#A81A47"/>
<path d="M121.223 2.81962C120.463 2.39346 119.537 2.39346 118.777 2.81962L92.5445 17.5348L62.469 17.9073C61.598 17.9181 60.7954 18.3814 60.3506 19.1304L44.9902 44.9902L19.1304 60.3506C18.3814 60.7954 17.9181 61.598 17.9073 62.469L17.5348 92.5445L2.81962 118.777C2.39346 119.537 2.39346 120.463 2.81962 121.223L17.5348 147.455L17.9073 177.531C17.9181 178.402 18.3814 179.205 19.1304 179.649L44.9902 195.01L60.3506 220.87C60.7954 221.619 61.598 222.082 62.469 222.093L92.5445 222.465L118.777 237.18C119.537 237.607 120.463 237.607 121.223 237.18L147.455 222.465L177.531 222.093C178.402 222.082 179.205 221.619 179.649 220.87L195.01 195.01L220.87 179.649C221.619 179.205 222.082 178.402 222.093 177.531L222.465 147.455L237.18 121.223C237.607 120.463 237.607 119.537 237.18 118.777L222.465 92.5445L222.093 62.469C222.082 61.598 221.619 60.7954 220.87 60.3506L195.01 44.9902L179.649 19.1304C179.205 18.3814 178.402 17.9181 177.531 17.9073L147.455 17.5348L121.223 2.81962Z" stroke="#A81A47" stroke-opacity="0.5" stroke-width="5" stroke-linecap="round" stroke-linejoin="round"/>
</svg>
