<svg width="45" height="40" viewBox="0 0 45 40" fill="none" xmlns="http://www.w3.org/2000/svg">
<path d="M15.4388 16.1143H35.7548V13.2C35.7548 11.5911 34.4399 10.2857 32.8193 10.2857H23.0343L19.1204 6.40002H9.33539C7.71415 6.40002 6.3999 7.70477 6.3999 9.31431V29.2529L11.937 18.2575C12.6011 16.94 13.9466 16.1143 15.4388 16.1143ZM39.6137 18.0572H15.4388C14.6988 18.0572 14.0199 18.47 13.6897 19.1318L6.3999 33.6H33.7428C34.484 33.6 35.1616 33.184 35.493 32.526L41.364 20.8688C42.0661 19.575 41.1182 18.0572 39.6137 18.0572Z" fill="url(#paint0_linear_1133_105)"/>
<defs>
<linearGradient id="paint0_linear_1133_105" x1="23.9999" y1="6.40002" x2="23.9999" y2="33.6" gradientUnits="userSpaceOnUse">
<stop stop-color="#B54568"/>
<stop offset="1" stop-color="#A21B45"/>
</linearGradient>
</defs>
</svg>
