<svg width="40" height="40" viewBox="0 0 40 40" fill="none" xmlns="http://www.w3.org/2000/svg">
<path d="M36.6665 31.6667H3.33317C2.4165 31.6667 1.6665 32.4167 1.6665 33.3333C1.6665 34.25 2.4165 35 3.33317 35H36.6665C37.5832 35 38.3332 34.25 38.3332 33.3333C38.3332 32.4167 37.5832 31.6667 36.6665 31.6667ZM6.6665 30H33.3332C35.1665 30 36.6498 28.5 36.6498 26.6667L36.6665 8.33333C36.6665 6.5 35.1665 5 33.3332 5H6.6665C4.83317 5 3.33317 6.5 3.33317 8.33333V26.6667C3.33317 28.5 4.83317 30 6.6665 30ZM14.3165 13.4167C14.7966 12.7014 15.4294 12.1014 16.1692 11.66C16.909 11.2185 17.7375 10.9466 18.595 10.8637C19.4525 10.7808 20.3177 10.8891 21.1283 11.1807C21.939 11.4722 22.6749 11.9399 23.2832 12.55C25.2498 14.5167 25.5165 17.55 24.0665 19.8167L26.6665 22.4C27.1498 22.8833 27.1498 23.6833 26.6665 24.1667C26.1832 24.65 25.3832 24.65 24.8998 24.1667L22.3165 21.5833C19.6998 23.25 16.0498 22.65 14.1998 19.7333C12.9832 17.8333 13.0498 15.2833 14.3165 13.4167Z" fill="url(#paint0_linear_1133_109)"/>
<path d="M19.1668 20C21.0078 20 22.5002 18.5076 22.5002 16.6666C22.5002 14.8257 21.0078 13.3333 19.1668 13.3333C17.3259 13.3333 15.8335 14.8257 15.8335 16.6666C15.8335 18.5076 17.3259 20 19.1668 20Z" fill="url(#paint1_linear_1133_109)"/>
<defs>
<linearGradient id="paint0_linear_1133_109" x1="19.9998" y1="5" x2="19.9998" y2="35" gradientUnits="userSpaceOnUse">
<stop stop-color="#B54568"/>
<stop offset="1" stop-color="#A21B45"/>
</linearGradient>
<linearGradient id="paint1_linear_1133_109" x1="19.1668" y1="13.3333" x2="19.1668" y2="20" gradientUnits="userSpaceOnUse">
<stop stop-color="#B54568"/>
<stop offset="1" stop-color="#A21B45"/>
</linearGradient>
</defs>
</svg>
