<svg width="33" height="33" viewBox="0 0 33 33" fill="none" xmlns="http://www.w3.org/2000/svg">
<path d="M32.5919 13.9921L28.9032 12.8921C28.6482 12.0026 28.2975 11.1432 27.8572 10.3291L29.663 6.95213C29.7307 6.82466 29.7556 6.67877 29.7337 6.53609C29.7119 6.39342 29.6446 6.26158 29.5419 6.16014L26.9103 3.52015C26.8088 3.41749 26.6768 3.35027 26.534 3.32847C26.3912 3.30667 26.2451 3.33146 26.1175 3.39915L22.7592 5.19214C21.9363 4.73087 21.0648 4.36196 20.1607 4.09215L19.0596 0.451166C19.0131 0.316985 18.9251 0.201026 18.8083 0.119982C18.6916 0.0389374 18.5521 -0.00301315 18.41 0.000168485H14.6884C14.5454 0.000833512 14.4063 0.0470662 14.2915 0.132138C14.1766 0.21721 14.0919 0.336682 14.0497 0.473166L12.9487 4.10315C12.037 4.37152 11.158 4.74046 10.3281 5.20314L7.02487 3.42115C6.89727 3.35346 6.75123 3.32867 6.60842 3.35047C6.4656 3.37227 6.33363 3.43949 6.23209 3.54215L3.55648 6.14914C3.45371 6.25058 3.38643 6.38242 3.36461 6.52509C3.34279 6.66777 3.3676 6.81366 3.43536 6.94113L5.2191 10.2411C4.75671 11.0668 4.38743 11.9411 4.11802 12.8481L0.473463 13.9481C0.336845 13.9902 0.217255 14.0749 0.1321 14.1896C0.0469439 14.3043 0.000665682 14.4433 0 14.5861V18.3041C0.000665682 18.4469 0.0469439 18.5858 0.1321 18.7006C0.217255 18.8153 0.336845 18.8999 0.473463 18.9421L4.14005 20.0421C4.41239 20.934 4.78162 21.7934 5.24112 22.6051L3.43536 26.059C3.3676 26.1865 3.34279 26.3324 3.36461 26.4751C3.38643 26.6177 3.45371 26.7496 3.55648 26.851L6.18805 29.48C6.28959 29.5827 6.42156 29.6499 6.56437 29.6717C6.70719 29.6935 6.85323 29.6687 6.98082 29.601L10.3831 27.786C11.188 28.2199 12.037 28.5665 12.9156 28.82L14.0167 32.527C14.0589 32.6635 14.1436 32.783 14.2584 32.868C14.3733 32.9531 14.5123 32.9993 14.6553 33H18.377C18.5199 32.9993 18.659 32.9531 18.7738 32.868C18.8887 32.783 18.9734 32.6635 19.0156 32.527L20.1167 28.809C20.9878 28.5542 21.8293 28.2076 22.6271 27.775L26.0515 29.601C26.1791 29.6687 26.3251 29.6935 26.4679 29.6717C26.6107 29.6499 26.7427 29.5827 26.8442 29.48L29.4758 26.851C29.5786 26.7496 29.6459 26.6177 29.6677 26.4751C29.6895 26.3324 29.6647 26.1865 29.5969 26.059L27.7691 22.6491C28.2067 21.849 28.5573 21.0046 28.8152 20.1301L32.5258 19.0301C32.6624 18.9879 32.782 18.9033 32.8671 18.7886C32.9523 18.6738 32.9986 18.5349 32.9992 18.3921V14.6411C33.0057 14.5043 32.9702 14.3688 32.8974 14.2528C32.8245 14.1368 32.7179 14.0458 32.5919 13.9921ZM16.5492 22.5501C15.3514 22.5501 14.1806 22.1952 13.1847 21.5304C12.1888 20.8657 11.4126 19.9208 10.9542 18.8153C10.4959 17.7098 10.3759 16.4934 10.6096 15.3198C10.8433 14.1462 11.4201 13.0682 12.267 12.2221C13.1139 11.376 14.193 10.7998 15.3677 10.5664C16.5425 10.3329 17.7601 10.4527 18.8667 10.9106C19.9732 11.3686 20.9191 12.144 21.5845 13.1389C22.2499 14.1338 22.6051 15.3035 22.6051 16.5001C22.6051 18.1046 21.9671 19.6435 20.8314 20.7781C19.6957 21.9126 18.1553 22.5501 16.5492 22.5501Z" fill="url(#paint0_linear_1133_107)"/>
<defs>
<linearGradient id="paint0_linear_1133_107" x1="16.5" y1="0" x2="16.5" y2="33" gradientUnits="userSpaceOnUse">
<stop stop-color="#B54568"/>
<stop offset="1" stop-color="#A21B45"/>
</linearGradient>
</defs>
</svg>
