<svg width="50" height="50" viewBox="0 0 50 50" fill="none" xmlns="http://www.w3.org/2000/svg">
<circle cx="25" cy="25" r="25" fill="white"/>
<g clip-path="url(#clip0_1138_446)">
<g filter="url(#filter0_d_1138_446)">
<path d="M11 22.5V35.25C11 35.6644 11.3132 36 11.7 36H15.2V21H12.4C11.6269 21 11 21.6717 11 22.5ZM26.75 20.25H25.7V18.375C25.7 18.1678 25.5434 18 25.35 18H24.65C24.4566 18 24.3 18.1678 24.3 18.375V21.375C24.3 21.5822 24.4566 21.75 24.65 21.75H26.75C26.9434 21.75 27.1 21.5822 27.1 21.375V20.625C27.1 20.4178 26.9434 20.25 26.75 20.25ZM32.7766 17.2519L25.7766 12.2517C25.5465 12.0876 25.2764 12 25 12C24.7236 12 24.4535 12.0876 24.2234 12.2517L17.2234 17.2519C17.0317 17.3888 16.8745 17.5744 16.7657 17.7921C16.657 18.0097 16.6 18.2528 16.6 18.4997V36H22.2V29.25C22.2 28.8356 22.5132 28.5 22.9 28.5H27.1C27.4867 28.5 27.8 28.8356 27.8 29.25V36H33.4V18.5002C33.4 17.9986 33.1659 17.5298 32.7766 17.2519ZM25 24C23.0671 24 21.5 22.3209 21.5 20.25C21.5 18.1791 23.0671 16.5 25 16.5C26.9329 16.5 28.5 18.1791 28.5 20.25C28.5 22.3209 26.9329 24 25 24ZM37.6 21H34.8V36H38.3C38.6868 36 39 35.6644 39 35.25V22.5C39 21.6717 38.3731 21 37.6 21Z" fill="url(#paint0_linear_1138_446)"/>
</g>
</g>
<defs>
<filter id="filter0_d_1138_446" x="8" y="10" width="34" height="30" filterUnits="userSpaceOnUse" color-interpolation-filters="sRGB">
<feFlood flood-opacity="0" result="BackgroundImageFix"/>
<feColorMatrix in="SourceAlpha" type="matrix" values="0 0 0 0 0 0 0 0 0 0 0 0 0 0 0 0 0 0 127 0" result="hardAlpha"/>
<feOffset dy="1"/>
<feGaussianBlur stdDeviation="1.5"/>
<feComposite in2="hardAlpha" operator="out"/>
<feColorMatrix type="matrix" values="0 0 0 0 0.683333 0 0 0 0 0 0 0 0 0 0.210651 0 0 0 0.2 0"/>
<feBlend mode="normal" in2="BackgroundImageFix" result="effect1_dropShadow_1138_446"/>
<feBlend mode="normal" in="SourceGraphic" in2="effect1_dropShadow_1138_446" result="shape"/>
</filter>
<linearGradient id="paint0_linear_1138_446" x1="25" y1="12" x2="25" y2="36" gradientUnits="userSpaceOnUse">
<stop stop-color="#B54568"/>
<stop offset="1" stop-color="#A21B45"/>
</linearGradient>
<clipPath id="clip0_1138_446">
<rect width="28" height="24" fill="white" transform="translate(11 12)"/>
</clipPath>
</defs>
</svg>
