<svg width="50" height="50" viewBox="0 0 50 50" fill="none" xmlns="http://www.w3.org/2000/svg">
<circle cx="25" cy="25" r="25" fill="white"/>
<g clip-path="url(#clip0_1138_451)">
<g filter="url(#filter0_d_1138_451)">
<path d="M37.8733 22.9937L34.9224 22.1137C34.7184 21.4021 34.4378 20.7146 34.0856 20.0633L35.5302 17.3618C35.5844 17.2598 35.6042 17.1431 35.5868 17.0289C35.5693 16.9148 35.5155 16.8093 35.4333 16.7282L33.328 14.6162C33.2468 14.534 33.1412 14.4803 33.027 14.4628C32.9127 14.4454 32.7959 14.4652 32.6938 14.5194L30.0072 15.9538C29.3489 15.5847 28.6517 15.2896 27.9284 15.0738L27.0475 12.161C27.0102 12.0536 26.9399 11.9609 26.8465 11.896C26.7531 11.8312 26.6415 11.7976 26.5278 11.8002H23.5505C23.4361 11.8007 23.3249 11.8377 23.233 11.9058C23.1411 11.9738 23.0733 12.0694 23.0396 12.1786L22.1587 15.0826C21.4294 15.2973 20.7262 15.5924 20.0623 15.9626L17.4197 14.537C17.3176 14.4828 17.2008 14.463 17.0865 14.4804C16.9723 14.4979 16.8667 14.5516 16.7855 14.6338L14.645 16.7194C14.5628 16.8005 14.5089 16.906 14.4915 17.0201C14.474 17.1343 14.4939 17.251 14.5481 17.353L15.9751 19.9929C15.6052 20.6535 15.3097 21.3529 15.0942 22.0785L12.1786 22.9585C12.0693 22.9922 11.9736 23.0599 11.9055 23.1517C11.8374 23.2435 11.8003 23.3547 11.7998 23.4689V26.4433C11.8003 26.5576 11.8374 26.6687 11.9055 26.7605C11.9736 26.8523 12.0693 26.92 12.1786 26.9537L15.1118 27.8337C15.3297 28.5472 15.6251 29.2348 15.9927 29.8841L14.5481 32.6473C14.4939 32.7493 14.474 32.866 14.4915 32.9801C14.5089 33.0942 14.5628 33.1997 14.645 33.2809L16.7502 35.3841C16.8315 35.4662 16.9371 35.52 17.0513 35.5374C17.1656 35.5548 17.2824 35.535 17.3845 35.4809L20.1063 34.0289C20.7502 34.376 21.4294 34.6533 22.1323 34.8561L23.0132 37.8217C23.0469 37.9308 23.1147 38.0264 23.2066 38.0945C23.2984 38.1625 23.4097 38.1995 23.5241 38.2001H26.5014C26.6158 38.1995 26.727 38.1625 26.8189 38.0945C26.9108 38.0264 26.9785 37.9308 27.0123 37.8217L27.8931 34.8473C28.59 34.6434 29.2633 34.3661 29.9015 34.0201L32.641 35.4809C32.743 35.535 32.8599 35.5548 32.9741 35.5374C33.0884 35.52 33.194 35.4662 33.2752 35.3841L35.3804 33.2809C35.4627 33.1997 35.5165 33.0942 35.5339 32.9801C35.5514 32.866 35.5315 32.7493 35.4773 32.6473L34.0151 29.9193C34.3651 29.2793 34.6457 28.6037 34.8519 27.9041L37.8204 27.0241C37.9297 26.9904 38.0254 26.9227 38.0935 26.8309C38.1616 26.7391 38.1987 26.628 38.1992 26.5137V23.5129C38.2044 23.4035 38.176 23.2951 38.1177 23.2023C38.0594 23.1095 37.9741 23.0367 37.8733 22.9937ZM25.0391 29.8401C24.0809 29.8401 23.1443 29.5562 22.3476 29.0244C21.5508 28.4926 20.9299 27.7367 20.5632 26.8523C20.1965 25.9679 20.1006 24.9947 20.2875 24.0559C20.4744 23.117 20.9358 22.2546 21.6134 21.5777C22.2909 20.9009 23.1542 20.4399 24.094 20.2531C25.0338 20.0664 26.0079 20.1622 26.8931 20.5286C27.7784 20.8949 28.535 21.5152 29.0674 22.3112C29.5997 23.1071 29.8839 24.0429 29.8839 25.0001C29.8839 26.2838 29.3735 27.5148 28.4649 28.4225C27.5563 29.3302 26.324 29.8401 25.0391 29.8401Z" fill="url(#paint0_linear_1138_451)"/>
</g>
</g>
<defs>
<filter id="filter0_d_1138_451" x="8.7998" y="9.80005" width="32.3999" height="32.3999" filterUnits="userSpaceOnUse" color-interpolation-filters="sRGB">
<feFlood flood-opacity="0" result="BackgroundImageFix"/>
<feColorMatrix in="SourceAlpha" type="matrix" values="0 0 0 0 0 0 0 0 0 0 0 0 0 0 0 0 0 0 127 0" result="hardAlpha"/>
<feOffset dy="1"/>
<feGaussianBlur stdDeviation="1.5"/>
<feComposite in2="hardAlpha" operator="out"/>
<feColorMatrix type="matrix" values="0 0 0 0 0.683333 0 0 0 0 0 0 0 0 0 0.210651 0 0 0 0.2 0"/>
<feBlend mode="normal" in2="BackgroundImageFix" result="effect1_dropShadow_1138_451"/>
<feBlend mode="normal" in="SourceGraphic" in2="effect1_dropShadow_1138_451" result="shape"/>
</filter>
<linearGradient id="paint0_linear_1138_451" x1="24.9998" y1="11.8" x2="24.9998" y2="38.2001" gradientUnits="userSpaceOnUse">
<stop stop-color="#B54568"/>
<stop offset="1" stop-color="#A21B45"/>
</linearGradient>
<clipPath id="clip0_1138_451">
<rect width="30" height="30" fill="white" transform="translate(10 10)"/>
</clipPath>
</defs>
</svg>
