<svg width="50" height="50" viewBox="0 0 50 50" fill="none" xmlns="http://www.w3.org/2000/svg">
<circle cx="25" cy="25" r="25" fill="white"/>
<g clip-path="url(#clip0_1138_447)">
<g filter="url(#filter0_d_1138_447)">
<path fill-rule="evenodd" clip-rule="evenodd" d="M30.8374 25.4126C32.5499 26.5751 33.7499 28.1501 33.7499 30.2501V34.0001H37.4999C38.1874 34.0001 38.7499 33.4376 38.7499 32.7501V30.2501C38.7499 27.5251 34.2874 25.9126 30.8374 25.4126Z" fill="url(#paint0_linear_1138_447)"/>
</g>
<g filter="url(#filter1_d_1138_447)">
<path d="M21.25 24C24.0114 24 26.25 21.7614 26.25 19C26.25 16.2386 24.0114 14 21.25 14C18.4886 14 16.25 16.2386 16.25 19C16.25 21.7614 18.4886 24 21.25 24Z" fill="url(#paint1_linear_1138_447)"/>
</g>
<g filter="url(#filter2_d_1138_447)">
<path fill-rule="evenodd" clip-rule="evenodd" d="M28.75 24C31.5125 24 33.75 21.7625 33.75 19C33.75 16.2375 31.5125 14 28.75 14C28.1625 14 27.6125 14.125 27.0875 14.3C28.1632 15.6303 28.75 17.2893 28.75 19C28.75 20.7107 28.1632 22.3697 27.0875 23.7C27.6125 23.875 28.1625 24 28.75 24ZM21.25 25.25C17.9125 25.25 11.25 26.925 11.25 30.25V32.75C11.25 33.4375 11.8125 34 12.5 34H30C30.6875 34 31.25 33.4375 31.25 32.75V30.25C31.25 26.925 24.5875 25.25 21.25 25.25Z" fill="url(#paint2_linear_1138_447)"/>
</g>
</g>
<defs>
<filter id="filter0_d_1138_447" x="27.8374" y="23.4126" width="13.9126" height="14.5874" filterUnits="userSpaceOnUse" color-interpolation-filters="sRGB">
<feFlood flood-opacity="0" result="BackgroundImageFix"/>
<feColorMatrix in="SourceAlpha" type="matrix" values="0 0 0 0 0 0 0 0 0 0 0 0 0 0 0 0 0 0 127 0" result="hardAlpha"/>
<feOffset dy="1"/>
<feGaussianBlur stdDeviation="1.5"/>
<feComposite in2="hardAlpha" operator="out"/>
<feColorMatrix type="matrix" values="0 0 0 0 0.683333 0 0 0 0 0 0 0 0 0 0.210651 0 0 0 0.2 0"/>
<feBlend mode="normal" in2="BackgroundImageFix" result="effect1_dropShadow_1138_447"/>
<feBlend mode="normal" in="SourceGraphic" in2="effect1_dropShadow_1138_447" result="shape"/>
</filter>
<filter id="filter1_d_1138_447" x="13.25" y="12" width="16" height="16" filterUnits="userSpaceOnUse" color-interpolation-filters="sRGB">
<feFlood flood-opacity="0" result="BackgroundImageFix"/>
<feColorMatrix in="SourceAlpha" type="matrix" values="0 0 0 0 0 0 0 0 0 0 0 0 0 0 0 0 0 0 127 0" result="hardAlpha"/>
<feOffset dy="1"/>
<feGaussianBlur stdDeviation="1.5"/>
<feComposite in2="hardAlpha" operator="out"/>
<feColorMatrix type="matrix" values="0 0 0 0 0.683333 0 0 0 0 0 0 0 0 0 0.210651 0 0 0 0.2 0"/>
<feBlend mode="normal" in2="BackgroundImageFix" result="effect1_dropShadow_1138_447"/>
<feBlend mode="normal" in="SourceGraphic" in2="effect1_dropShadow_1138_447" result="shape"/>
</filter>
<filter id="filter2_d_1138_447" x="8.25" y="12" width="28.5" height="26" filterUnits="userSpaceOnUse" color-interpolation-filters="sRGB">
<feFlood flood-opacity="0" result="BackgroundImageFix"/>
<feColorMatrix in="SourceAlpha" type="matrix" values="0 0 0 0 0 0 0 0 0 0 0 0 0 0 0 0 0 0 127 0" result="hardAlpha"/>
<feOffset dy="1"/>
<feGaussianBlur stdDeviation="1.5"/>
<feComposite in2="hardAlpha" operator="out"/>
<feColorMatrix type="matrix" values="0 0 0 0 0.683333 0 0 0 0 0 0 0 0 0 0.210651 0 0 0 0.2 0"/>
<feBlend mode="normal" in2="BackgroundImageFix" result="effect1_dropShadow_1138_447"/>
<feBlend mode="normal" in="SourceGraphic" in2="effect1_dropShadow_1138_447" result="shape"/>
</filter>
<linearGradient id="paint0_linear_1138_447" x1="34.7937" y1="25.4126" x2="34.7937" y2="34.0001" gradientUnits="userSpaceOnUse">
<stop stop-color="#B54568"/>
<stop offset="1" stop-color="#A21B45"/>
</linearGradient>
<linearGradient id="paint1_linear_1138_447" x1="21.25" y1="14" x2="21.25" y2="24" gradientUnits="userSpaceOnUse">
<stop stop-color="#B54568"/>
<stop offset="1" stop-color="#A21B45"/>
</linearGradient>
<linearGradient id="paint2_linear_1138_447" x1="22.5" y1="14" x2="22.5" y2="34" gradientUnits="userSpaceOnUse">
<stop stop-color="#B54568"/>
<stop offset="1" stop-color="#A21B45"/>
</linearGradient>
<clipPath id="clip0_1138_447">
<rect width="30" height="30" fill="white" transform="translate(10 9)"/>
</clipPath>
</defs>
</svg>
