<svg width="251" height="251" viewBox="0 0 251 251" fill="none" xmlns="http://www.w3.org/2000/svg">
<g filter="url(#filter0_d_1133_281)">
<path d="M125.5 9L152.171 23.9613L182.75 24.3401L198.367 50.6326L224.66 66.25L225.039 96.8287L240 123.5L225.039 150.171L224.66 180.75L198.367 196.367L182.75 222.66L152.171 223.039L125.5 238L98.8287 223.039L68.25 222.66L52.6326 196.367L26.3401 180.75L25.9613 150.171L11 123.5L25.9613 96.8287L26.3401 66.25L52.6326 50.6326L68.25 24.3401L98.8287 23.9613L125.5 9Z" fill="white"/>
<path d="M126.723 6.81962C125.963 6.39346 125.037 6.39346 124.277 6.81962L98.161 21.4694L68.219 21.8403C67.348 21.8511 66.5454 22.3144 66.1006 23.0634L50.8084 48.8084L25.0634 64.1006C24.3144 64.5454 23.8511 65.348 23.8403 66.219L23.4694 96.161L8.81962 122.277C8.39346 123.037 8.39346 123.963 8.81962 124.723L23.4694 150.839L23.8403 180.781C23.8511 181.652 24.3144 182.455 25.0634 182.899L50.8084 198.192L66.1006 223.937C66.5454 224.686 67.348 225.149 68.219 225.16L98.161 225.531L124.277 240.18C125.037 240.607 125.963 240.607 126.723 240.18L152.839 225.531L182.781 225.16C183.652 225.149 184.455 224.686 184.899 223.937L200.192 198.192L225.937 182.899C226.686 182.455 227.149 181.652 227.16 180.781L227.531 150.839L242.18 124.723C242.607 123.963 242.607 123.037 242.18 122.277L227.531 96.161L227.16 66.219C227.149 65.348 226.686 64.5454 225.937 64.1006L200.192 48.8084L184.899 23.0634C184.455 22.3144 183.652 21.8511 182.781 21.8403L152.839 21.4694L126.723 6.81962Z" stroke="#A81A47" stroke-opacity="0.5" stroke-width="5" stroke-linecap="round" stroke-linejoin="round"/>
</g>
<defs>
<filter id="filter0_d_1133_281" x="0" y="0" width="251" height="251" filterUnits="userSpaceOnUse" color-interpolation-filters="sRGB">
<feFlood flood-opacity="0" result="BackgroundImageFix"/>
<feColorMatrix in="SourceAlpha" type="matrix" values="0 0 0 0 0 0 0 0 0 0 0 0 0 0 0 0 0 0 127 0" result="hardAlpha"/>
<feMorphology radius="1" operator="dilate" in="SourceAlpha" result="effect1_dropShadow_1133_281"/>
<feOffset dy="2"/>
<feGaussianBlur stdDeviation="2.5"/>
<feColorMatrix type="matrix" values="0 0 0 0 0.2375 0 0 0 0 0 0 0 0 0 0.075264 0 0 0 0.15 0"/>
<feBlend mode="normal" in2="BackgroundImageFix" result="effect1_dropShadow_1133_281"/>
<feBlend mode="normal" in="SourceGraphic" in2="effect1_dropShadow_1133_281" result="shape"/>
</filter>
</defs>
</svg>
