<svg width="50" height="50" viewBox="0 0 50 50" fill="none" xmlns="http://www.w3.org/2000/svg">
<rect width="50" height="50" rx="25" fill="white"/>
<path d="M24.9999 28.7333C27.0618 28.7333 28.7333 27.0618 28.7333 24.9999C28.7333 22.9381 27.0618 21.2666 24.9999 21.2666C22.9381 21.2666 21.2666 22.9381 21.2666 24.9999C21.2666 27.0618 22.9381 28.7333 24.9999 28.7333Z" fill="url(#paint0_linear_1301_4)"/>
<path d="M21.5002 13.3333L19.3652 15.6666H15.6668C14.3835 15.6666 13.3335 16.7166 13.3335 17.9999V31.9999C13.3335 33.2832 14.3835 34.3332 15.6668 34.3332H34.3335C35.6168 34.3332 36.6668 33.2832 36.6668 31.9999V17.9999C36.6668 16.7166 35.6168 15.6666 34.3335 15.6666H30.6352L28.5002 13.3333H21.5002ZM25.0002 30.8333C21.7802 30.8333 19.1668 28.2199 19.1668 24.9999C19.1668 21.7799 21.7802 19.1666 25.0002 19.1666C28.2202 19.1666 30.8335 21.7799 30.8335 24.9999C30.8335 28.2199 28.2202 30.8333 25.0002 30.8333Z" fill="url(#paint1_linear_1301_4)"/>
<defs>
<linearGradient id="paint0_linear_1301_4" x1="24.9999" y1="21.2666" x2="24.9999" y2="28.7333" gradientUnits="userSpaceOnUse">
<stop stop-color="#B54568"/>
<stop offset="1" stop-color="#A21B45"/>
</linearGradient>
<linearGradient id="paint1_linear_1301_4" x1="25.0002" y1="13.3333" x2="25.0002" y2="34.3333" gradientUnits="userSpaceOnUse">
<stop stop-color="#B54568"/>
<stop offset="1" stop-color="#A21B45"/>
</linearGradient>
</defs>
</svg>
