<svg width="36" height="36" viewBox="0 0 36 36" fill="none" xmlns="http://www.w3.org/2000/svg">
<path d="M18 0C8.05887 0 0 8.05887 0 18C0 27.9411 8.05887 36 18 36C27.9411 36 36 27.9411 36 18C36 8.05887 27.9411 0 18 0ZM11.5312 7.1499C11.9021 7.12803 12.2373 7.3497 12.4915 7.74315L14.9524 12.4101C15.2115 12.9631 15.0643 13.5553 14.6777 13.9504L13.5505 15.0776C13.481 15.1729 13.4352 15.2803 13.4341 15.3984C13.8664 17.0717 15.1776 18.6151 16.3345 19.6765C17.4914 20.7379 18.7348 22.1749 20.3489 22.5154C20.5484 22.571 20.7928 22.591 20.9356 22.4583L22.2451 21.1245C22.6972 20.7819 23.3511 20.6158 23.8337 20.896H23.8557L28.2963 23.5174C28.9482 23.9259 29.0157 24.7157 28.549 25.1961L25.4905 28.2305C25.0388 28.6937 24.4387 28.8494 23.8558 28.8501C21.2773 28.7728 18.841 27.5073 16.8399 26.2068C13.5552 23.8172 10.5422 20.8534 8.65065 17.2727C7.92519 15.7712 7.07298 13.8554 7.15431 12.1795C7.16157 11.549 7.33215 10.9313 7.77615 10.525L10.8347 7.46637C11.073 7.26363 11.3087 7.16304 11.5312 7.1499Z" fill="#222222"/>
</svg>
