<svg width="50" height="50" viewBox="0 0 50 50" fill="none" xmlns="http://www.w3.org/2000/svg">
<circle cx="25" cy="25" r="25" fill="white"/>
<g clip-path="url(#clip0_1138_455)">
<g filter="url(#filter0_d_1138_455)">
<path d="M37.6 15.375H12.4C11.6269 15.375 11 15.9907 11 16.75V33.25C11 34.0093 11.6269 34.625 12.4 34.625H37.6C38.3731 34.625 39 34.0093 39 33.25V16.75C39 15.9907 38.3731 15.375 37.6 15.375ZM18.7 28.0886V28.7812C18.7 28.9712 18.5434 29.125 18.35 29.125H17.65C17.4566 29.125 17.3 28.9712 17.3 28.7812V28.0813C16.8061 28.0564 16.3257 27.8871 15.9276 27.5936C15.7569 27.4677 15.7482 27.2168 15.9026 27.072L16.4167 26.5903C16.5379 26.4768 16.7181 26.4717 16.8599 26.5589C17.0292 26.6629 17.2212 26.7188 17.4207 26.7188H18.6506C18.9349 26.7188 19.1668 26.4644 19.1668 26.152C19.1668 25.8963 19.0089 25.6712 18.7831 25.605L16.8144 25.0249C16.0011 24.7852 15.4327 24.0186 15.4327 23.1605C15.4327 22.1069 16.2662 21.251 17.2996 21.2239V20.5312C17.2996 20.3413 17.4562 20.1875 17.6496 20.1875H18.3496C18.5429 20.1875 18.6996 20.3413 18.6996 20.5312V21.2312C19.1935 21.2561 19.6739 21.425 20.072 21.7189C20.2426 21.8448 20.2514 22.0957 20.0969 22.2405L19.5829 22.7222C19.4617 22.8357 19.2814 22.8408 19.1397 22.7536C18.9704 22.6492 18.7783 22.5938 18.5788 22.5938H17.349C17.0646 22.5938 16.8328 22.8481 16.8328 23.1605C16.8328 23.4162 16.9907 23.6413 17.2164 23.7075L19.1852 24.2876C19.9985 24.5273 20.5668 25.2939 20.5668 26.152C20.5668 27.206 19.7334 28.0615 18.7 28.0886V28.0886ZM29.2 27.4062C29.2 27.5962 29.0434 27.75 28.85 27.75H23.95C23.7566 27.75 23.6 27.5962 23.6 27.4062V26.7188C23.6 26.5288 23.7566 26.375 23.95 26.375H28.85C29.0434 26.375 29.2 26.5288 29.2 26.7188V27.4062ZM36.2 27.4062C36.2 27.5962 36.0434 27.75 35.85 27.75H32.35C32.1566 27.75 32 27.5962 32 27.4062V26.7188C32 26.5288 32.1566 26.375 32.35 26.375H35.85C36.0434 26.375 36.2 26.5288 36.2 26.7188V27.4062ZM36.2 23.2812C36.2 23.4712 36.0434 23.625 35.85 23.625H23.95C23.7566 23.625 23.6 23.4712 23.6 23.2812V22.5938C23.6 22.4038 23.7566 22.25 23.95 22.25H35.85C36.0434 22.25 36.2 22.4038 36.2 22.5938V23.2812Z" fill="url(#paint0_linear_1138_455)"/>
</g>
</g>
<defs>
<filter id="filter0_d_1138_455" x="8" y="13.375" width="34" height="25.25" filterUnits="userSpaceOnUse" color-interpolation-filters="sRGB">
<feFlood flood-opacity="0" result="BackgroundImageFix"/>
<feColorMatrix in="SourceAlpha" type="matrix" values="0 0 0 0 0 0 0 0 0 0 0 0 0 0 0 0 0 0 127 0" result="hardAlpha"/>
<feOffset dy="1"/>
<feGaussianBlur stdDeviation="1.5"/>
<feComposite in2="hardAlpha" operator="out"/>
<feColorMatrix type="matrix" values="0 0 0 0 0.683333 0 0 0 0 0 0 0 0 0 0.210651 0 0 0 0.2 0"/>
<feBlend mode="normal" in2="BackgroundImageFix" result="effect1_dropShadow_1138_455"/>
<feBlend mode="normal" in="SourceGraphic" in2="effect1_dropShadow_1138_455" result="shape"/>
</filter>
<linearGradient id="paint0_linear_1138_455" x1="25" y1="15.375" x2="25" y2="34.625" gradientUnits="userSpaceOnUse">
<stop stop-color="#B54568"/>
<stop offset="1" stop-color="#A21B45"/>
</linearGradient>
<clipPath id="clip0_1138_455">
<rect width="28" height="22" fill="white" transform="translate(11 14)"/>
</clipPath>
</defs>
</svg>
